<?xml version="1.0" encoding="utf-8"?>
<!-- Generator: Adobe Illustrator 15.0.0, SVG Export Plug-In  -->
<!DOCTYPE svg PUBLIC "-//W3C//DTD SVG 1.1//EN" "http://www.w3.org/Graphics/SVG/1.1/DTD/svg11.dtd" [
	<!ENTITY ns_flows "http://ns.adobe.com/Flows/1.0/">
]>
<svg version="1.1"
	 xmlns="http://www.w3.org/2000/svg" xmlns:xlink="http://www.w3.org/1999/xlink" xmlns:a="http://ns.adobe.com/AdobeSVGViewerExtensions/3.0/"
	 x="0px" y="0px" width="300px" height="90px" viewBox="-3.754 -5.63 300 90" enable-background="new -3.754 -5.63 300 90"
	 xml:space="preserve">
<defs>
</defs>
<path fill="#272626" d="M24.935,0h24.934v7.124H24.935c-4.916,0-9.107,1.734-12.574,5.201c-2.612,2.613-4.25,5.628-4.916,9.048l0,0
	l-0.32,7.124l0,0v21.373H0V24.935C0,18.048,2.434,12.17,7.303,7.302C12.17,2.435,18.048,0,24.935,0z"/>
<path fill="#272626" d="M64.117,0v49.869h-7.125V0H64.117z"/>
<path fill="#272626" d="M78.365,24.935v24.935h-7.124V24.935c0-6.887,2.434-12.764,7.302-17.632C83.411,2.435,89.289,0,96.176,0
	c6.886,0,12.763,2.435,17.632,7.302c4.867,4.868,7.302,10.746,7.302,17.632v24.935h-7.124V24.935c0-4.916-1.74-9.113-5.218-12.592
	c-3.479-3.479-7.676-5.219-12.591-5.219c-4.916,0-9.114,1.74-12.592,5.219C80.104,15.822,78.365,20.019,78.365,24.935z"/>
<path fill="#272626" d="M156.729,7.124v42.745h-7.124V7.124h-21.372V0h49.869v7.124H156.729z"/>
<path fill="#272626" d="M210.161,42.745h24.934v7.125h-24.934c-6.888,0-12.766-2.434-17.633-7.302
	c-4.868-4.869-7.302-10.746-7.302-17.632s2.434-12.764,7.302-17.632C197.396,2.435,203.273,0,210.161,0h24.934v7.124h-24.934
	c-4.916,0-9.107,1.734-12.575,5.201c-2.612,2.613-4.25,5.628-4.915,9.048l0,0c0,0-0.28,2.559-0.28,3.413
	c0,0.928,0.28,3.711,0.28,3.711l0,0c0.665,3.419,2.303,6.424,4.915,9.012C201.054,40.999,205.245,42.745,210.161,42.745z"/>
<path fill="#272626" d="M277.839,7.124h-35.62V0h35.62c3.942,0,7.303,1.39,10.081,4.168c2.779,2.778,4.168,6.139,4.168,10.08
	c0,3.942-1.389,7.303-4.168,10.081c-1.781,1.781-3.812,2.992-6.091,3.633c0.64,0.547,1.281,1.129,1.923,1.746
	c5.557,5.581,8.336,12.301,8.336,20.162h-7.125c0-5.914-2.083-10.954-6.251-15.121c-4.168-4.167-9.208-6.251-15.121-6.251h-14.248
	v21.373h-7.124V14.248h7.124v7.125h28.496c1.972,0,3.651-0.694,5.041-2.084c1.389-1.389,2.083-3.069,2.083-5.041
	c0-1.971-0.694-3.65-2.083-5.04C281.49,7.818,279.811,7.124,277.839,7.124z"/>
<circle fill="#EE3E25" cx="29.09" cy="25.032" r="4.342"/>
<circle fill="#EE3E25" cx="216.725" cy="25.121" r="4.343"/>
<path fill="#EE3E25" d="M217.337,77.08h11.19v3.197h-11.19c-3.092,0-5.729-1.092-7.915-3.277c-2.185-2.185-3.277-4.822-3.277-7.913
	c0-3.091,1.093-5.729,3.277-7.914c2.186-2.185,4.823-3.277,7.915-3.277h11.19v3.197h-11.19c-2.208,0-4.088,0.778-5.644,2.334
	c-1.173,1.172-1.908,2.526-2.207,4.061h19.041v3.197h-19.041c0.299,1.535,1.034,2.883,2.207,4.045
	C213.249,76.296,215.129,77.08,217.337,77.08z"/>
<path fill="#EE3E25" d="M254.26,61.092h-15.987v-3.197h15.987c1.769,0,3.276,0.623,4.524,1.87c1.246,1.247,1.87,2.755,1.87,4.524
	c0,1.77-0.624,3.278-1.87,4.524c-0.8,0.799-1.711,1.343-2.734,1.631c0.288,0.245,0.575,0.506,0.863,0.783
	c2.494,2.504,3.741,5.521,3.741,9.049h-3.197c0-2.654-0.935-4.916-2.807-6.786c-1.869-1.871-4.132-2.806-6.785-2.806h-6.395v9.592
	h-3.198V64.29h3.198v3.198h12.789c0.884,0,1.638-0.312,2.263-0.935c0.622-0.624,0.935-1.378,0.935-2.263
	c0-0.884-0.313-1.638-0.935-2.262C255.897,61.404,255.144,61.092,254.26,61.092z"/>
<path fill="#EE3E25" d="M286.387,61.092H270.4v-3.197h15.986c1.769,0,3.277,0.623,4.524,1.87c1.247,1.247,1.87,2.755,1.87,4.524
	c0,1.77-0.623,3.278-1.87,4.524c-1.247,1.248-2.756,1.871-4.524,1.871h-12.789v9.592H270.4V64.29h3.197v3.198h12.789
	c0.884,0,1.638-0.312,2.262-0.935c0.623-0.624,0.936-1.378,0.936-2.263c0-0.884-0.313-1.638-0.936-2.262
	C288.024,61.404,287.271,61.092,286.387,61.092z"/>
</svg>
